<svg width="114" height="116" viewBox="0 0 114 116" fill="none" xmlns="http://www.w3.org/2000/svg">
<path d="M56.64 115.96C48.1067 115.96 40.3733 114.36 33.44 111.16C26.6133 107.853 20.6933 103.48 15.68 98.04C10.7733 92.4933 6.98667 86.3067 4.32 79.48C1.65333 72.5467 0.32 65.4 0.32 58.04C0.32 50.4667 1.70667 43.2667 4.48 36.44C7.36 29.6133 11.3067 23.5333 16.32 18.2C21.44 12.76 27.4667 8.49333 34.4 5.39999C41.3333 2.30666 48.9067 0.759993 57.12 0.759993C65.5467 0.759993 73.1733 2.41333 80 5.72C86.9333 8.91999 92.8533 13.2933 97.76 18.84C102.773 24.3867 106.613 30.6267 109.28 37.56C111.947 44.3867 113.28 51.3733 113.28 58.52C113.28 66.0933 111.893 73.2933 109.12 80.12C106.347 86.9467 102.4 93.08 97.28 98.52C92.16 103.853 86.1333 108.12 79.2 111.32C72.3733 114.413 64.8533 115.96 56.64 115.96ZM27.04 58.36C27.04 62.7333 27.68 67 28.96 71.16C30.24 75.2133 32.1067 78.84 34.56 82.04C37.12 85.24 40.2667 87.8 44 89.72C47.7333 91.64 52 92.6 56.8 92.6C61.8133 92.6 66.1867 91.64 69.92 89.72C73.6533 87.6933 76.7467 85.0267 79.2 81.72C81.6533 78.4133 83.4667 74.7333 84.64 70.68C85.92 66.52 86.56 62.3067 86.56 58.04C86.56 53.6667 85.92 49.4533 84.64 45.4C83.36 41.3467 81.44 37.72 78.88 34.52C76.32 31.2133 73.1733 28.6533 69.44 26.84C65.7067 25.0267 61.4933 24.12 56.8 24.12C51.7867 24.12 47.4133 25.08 43.68 27C40.0533 28.92 36.96 31.5333 34.4 34.84C31.9467 38.04 30.08 41.72 28.8 45.88C27.6267 49.9333 27.04 54.0933 27.04 58.36Z" fill="#FF9619"/>
</svg>
