<svg width="114" height="116" viewBox="0 0 114 116" fill="none" xmlns="http://www.w3.org/2000/svg">
<path d="M56.64 115.96C48.2133 115.96 40.5333 114.36 33.6 111.16C26.7733 107.853 20.8533 103.48 15.84 98.04C10.8267 92.4933 6.98667 86.3067 4.32 79.48C1.65333 72.5467 0.32 65.4 0.32 58.04C0.32 50.5733 1.70667 43.4267 4.48 36.6C7.36 29.6667 11.3067 23.5333 16.32 18.2C21.44 12.76 27.4667 8.49333 34.4 5.39999C41.3333 2.30666 48.9067 0.759993 57.12 0.759993C65.5467 0.759993 73.1733 2.41333 80 5.72C86.9333 8.91999 92.8533 13.2933 97.76 18.84C102.773 24.3867 106.613 30.6267 109.28 37.56C111.947 44.3867 113.28 51.3733 113.28 58.52C113.28 65.9867 111.84 73.1867 108.96 80.12C106.187 86.9467 102.24 93.08 97.12 98.52C92.1067 103.853 86.1333 108.12 79.2 111.32C72.3733 114.413 64.8533 115.96 56.64 115.96ZM27.04 58.36C27.04 64.2267 28.16 69.7733 30.4 75C32.64 80.12 36 84.3333 40.48 87.64C44.96 90.9467 50.4 92.6 56.8 92.6C63.4133 92.6 68.9067 90.8933 73.28 87.48C77.76 84.0667 81.0667 79.7467 83.2 74.52C85.44 69.1867 86.56 63.6933 86.56 58.04C86.56 52.1733 85.3867 46.68 83.04 41.56C80.8 36.3333 77.44 32.12 72.96 28.92C68.5867 25.72 63.2 24.12 56.8 24.12C50.1867 24.12 44.64 25.8267 40.16 29.24C35.7867 32.5467 32.48 36.8133 30.24 42.04C28.1067 47.2667 27.04 52.7067 27.04 58.36Z" fill="#FF9619"/>
</svg>
