<svg width="11" height="15" viewBox="0 0 11 15" fill="none" xmlns="http://www.w3.org/2000/svg">
<path d="M10.6055 13.125V15H1.07422V13.3887L5.70312 8.33984C6.21094 7.76693 6.61133 7.27214 6.9043 6.85547C7.19727 6.4388 7.40234 6.06445 7.51953 5.73242C7.64323 5.39388 7.70508 5.0651 7.70508 4.74609C7.70508 4.29688 7.62044 3.90299 7.45117 3.56445C7.28841 3.2194 7.04753 2.94922 6.72852 2.75391C6.40951 2.55208 6.02214 2.45117 5.56641 2.45117C5.03906 2.45117 4.59635 2.5651 4.23828 2.79297C3.88021 3.02083 3.61003 3.33659 3.42773 3.74023C3.24544 4.13737 3.1543 4.5931 3.1543 5.10742H0.800781C0.800781 4.2806 0.989583 3.52539 1.36719 2.8418C1.74479 2.15169 2.29167 1.60482 3.00781 1.20117C3.72396 0.791016 4.58659 0.585938 5.5957 0.585938C6.54622 0.585938 7.35352 0.745443 8.01758 1.06445C8.68164 1.38346 9.1862 1.83594 9.53125 2.42188C9.88281 3.00781 10.0586 3.70117 10.0586 4.50195C10.0586 4.94466 9.98698 5.38411 9.84375 5.82031C9.70052 6.25651 9.49544 6.69271 9.22852 7.12891C8.9681 7.55859 8.65885 7.99154 8.30078 8.42773C7.94271 8.85742 7.54883 9.29362 7.11914 9.73633L4.04297 13.125H10.6055Z" fill="#343434"/>
</svg>
