<svg width="10" height="16" viewBox="0 0 10 16" fill="none" xmlns="http://www.w3.org/2000/svg">
<path d="M3.94531 7.24609H5.13672C5.86589 7.24609 6.47461 7.1224 6.96289 6.875C7.45768 6.62109 7.82878 6.28581 8.07617 5.86914C8.33008 5.45247 8.45703 4.99023 8.45703 4.48242C8.45703 3.90951 8.34961 3.4082 8.13477 2.97852C7.91992 2.54232 7.59115 2.20378 7.14844 1.96289C6.71224 1.71549 6.15234 1.5918 5.46875 1.5918C4.86979 1.5918 4.33594 1.70898 3.86719 1.94336C3.39844 2.17773 3.02734 2.51302 2.75391 2.94922C2.48047 3.38542 2.34375 3.90625 2.34375 4.51172H1.18164C1.18164 3.73698 1.36719 3.05664 1.73828 2.4707C2.10938 1.87826 2.62044 1.41602 3.27148 1.08398C3.92253 0.751953 4.65495 0.585938 5.46875 0.585938C6.30859 0.585938 7.03776 0.738932 7.65625 1.04492C8.28125 1.35091 8.76302 1.79688 9.10156 2.38281C9.44661 2.96875 9.61914 3.68164 9.61914 4.52148C9.61914 4.95117 9.52474 5.37435 9.33594 5.79102C9.15365 6.20768 8.88021 6.58529 8.51562 6.92383C8.15104 7.25586 7.69857 7.52279 7.1582 7.72461C6.61784 7.92643 5.98958 8.02734 5.27344 8.02734H3.94531V7.24609ZM3.94531 8.25195V7.48047H5.27344C6.08724 7.48047 6.78385 7.57487 7.36328 7.76367C7.94271 7.94596 8.41797 8.20638 8.78906 8.54492C9.16667 8.87695 9.44336 9.26432 9.61914 9.70703C9.79492 10.1497 9.88281 10.625 9.88281 11.1328C9.88281 11.7839 9.77539 12.36 9.56055 12.8613C9.3457 13.3626 9.03971 13.7891 8.64258 14.1406C8.25195 14.4857 7.78971 14.7493 7.25586 14.9316C6.72852 15.1074 6.14909 15.1953 5.51758 15.1953C4.94466 15.1953 4.38477 15.1107 3.83789 14.9414C3.29753 14.7721 2.80924 14.5215 2.37305 14.1895C1.94336 13.8509 1.60156 13.4277 1.34766 12.9199C1.09375 12.4056 0.966797 11.8132 0.966797 11.1426H2.12891C2.12891 11.7415 2.27214 12.2721 2.55859 12.7344C2.84505 13.1901 3.24219 13.5482 3.75 13.8086C4.26432 14.0625 4.85352 14.1895 5.51758 14.1895C6.18815 14.1895 6.76107 14.0755 7.23633 13.8477C7.7181 13.6133 8.08594 13.2715 8.33984 12.8223C8.59375 12.373 8.7207 11.8229 8.7207 11.1719C8.7207 10.4883 8.56771 9.93164 8.26172 9.50195C7.96224 9.07227 7.54232 8.75651 7.00195 8.55469C6.4681 8.35286 5.84635 8.25195 5.13672 8.25195H3.94531Z" fill="#343434" fill-opacity="0.5"/>
</svg>
